#
#
#

mtllib knob.mtl


#
# BackGroundMat Mesh
#
g BackGroundMat


#
# BackGroundMat Mesh_BackGroundMat
#
usemtl BackGroundMat

v 9.375000 -0.500000 -3.750000
v 7.500000 -0.500000 -1.875000
v 9.375000 -0.500000 -1.875000
v 7.500000 -0.500000 -3.750000
v 5.625000 -0.500000 -1.875000
v 3.750000 -0.500000 -3.750000
v 5.625000 -0.500000 -3.750000
v 1.875000 -0.500000 -1.875000
v 3.750000 -0.500000 -1.875000
v 0.000000 -0.500000 -3.750000
v 1.875000 -0.500000 -3.750000
v -1.875000 -0.500000 -1.875000
v 0.000000 -0.500000 -1.875000
v -3.750000 -0.500000 -3.750000
v -1.875000 -0.500000 -3.750000
v -5.625000 -0.500000 -3.750000
v -3.750000 -0.500000 -1.875000
v -7.500000 -0.500000 -1.875000
v -5.625000 -0.500000 -1.875000
v -9.375000 -0.500000 -3.750000
v -7.500000 -0.500000 -3.750000
v 9.375000 -0.500000 0.000000
v 7.500000 -0.500000 0.000000
v 5.625000 -0.500000 0.000000
v 3.750000 -0.500000 0.000000
v 0.000000 -0.500000 0.000000
v 1.875000 -0.500000 0.000000
v -1.875000 -0.500000 0.000000
v -3.750000 -0.500000 0.000000
v -5.625000 -0.500000 0.000000
v -9.375000 -0.500000 -1.875000
v -7.500000 -0.500000 0.000000
v 9.375000 -0.500000 1.875000
v 7.500000 -0.500000 1.875000
v 5.625000 -0.500000 1.875000
v 3.750000 -0.500000 1.875000
v 1.875000 -0.500000 1.875000
v 0.000000 -0.500000 1.875000
v -3.750000 -0.500000 1.875000
v -1.875000 -0.500000 1.875000
v -7.500000 -0.500000 1.875000
v -5.625000 -0.500000 1.875000
v -9.375000 -0.500000 1.875000
v 9.375000 -0.500000 3.750000
v 5.625000 -0.500000 3.750000
v 7.500000 -0.500000 3.750000
v 3.750000 -0.500000 3.750000
v 1.875000 -0.500000 3.750000
v -1.875000 -0.500000 3.750000
v 0.000000 -0.500000 3.750000
v -3.750000 -0.500000 3.750000
v -5.625000 -0.500000 3.750000
v -7.500000 -0.500000 3.750000
v 9.375000 -0.500000 5.625000
v 7.500000 -0.500000 5.625000
v 5.625000 -0.500000 5.625000
v 1.875000 -0.500000 5.625000
v 3.750000 -0.500000 5.625000
v -1.875000 -0.500000 5.625000
v 0.000000 -0.500000 5.625000
v -3.750000 -0.500000 5.625000
v -5.625000 -0.500000 5.625000
v -9.375000 -0.500000 3.750000
v -7.500000 -0.500000 5.625000
v 9.375000 0.173279 7.321805
v 7.500000 0.173279 7.321805
v 5.625000 0.173279 7.321805
v 3.750000 0.173279 7.321805
v 1.875000 0.173279 7.321805
v 0.000000 0.173279 7.321805
v -1.875000 0.173279 7.321805
v -3.750000 0.173279 7.321805
v -5.625000 0.173279 7.321805
v -9.375000 -0.500000 5.625000
v -7.500000 0.173279 7.321805
v 9.375000 1.413862 8.712364
v 7.500000 1.413862 8.712368
v 5.625000 1.413862 8.712368
v 3.750000 1.413862 8.712368
v 1.875000 1.413862 8.712368
v 0.000000 1.413862 8.712368
v -1.875000 1.413862 8.712368
v -5.625000 1.413862 8.712368
v -3.750000 1.413862 8.712368
v -9.375000 0.173279 7.321805
v -7.500000 1.413862 8.712368
v 9.375000 2.941206 9.507335
v 7.500000 2.941206 9.507335
v 5.625000 2.941206 9.507335
v 3.750000 2.941206 9.507335
v 1.875000 2.941206 9.507335
v 0.000000 2.941206 9.507338
v -1.875000 2.941206 9.507338
v -3.750000 2.941206 9.507338
v -5.625000 2.941206 9.507338
v -9.375000 1.413862 8.712368
v -7.500000 2.941206 9.507338
v 9.375000 4.512670 10.103775
v 7.500000 4.512670 10.103775
v 5.625000 4.512670 10.103775
v 3.750000 4.512670 10.103775
v 1.875000 4.512670 10.103775
v 0.000000 4.512670 10.103775
v -1.875000 4.512670 10.103778
v -3.750000 4.512670 10.103778
v -5.625000 4.512670 10.103778
v -9.375000 2.941206 9.507338
v -7.500000 4.512670 10.103778
v 9.375000 6.282658 10.567864
v 7.500000 6.282658 10.567864
v 5.625000 6.282658 10.567864
v 1.875000 6.282658 10.567864
v 3.750000 6.282658 10.567864
v 0.000000 6.282658 10.567867
v -1.875000 6.282658 10.567867
v -3.750000 6.282658 10.567867
v -5.625000 6.282658 10.567867
v -9.375000 4.512670 10.103778
v -7.500000 6.282658 10.567867
v -9.375000 -0.500000 0.000000
v -9.375000 6.282658 10.567867
vn 0.000000 1.000000 0.000000
vn 0.000000 0.982226 -0.187705
vn 0.000000 0.850912 -0.525308
vn 0.000000 0.614003 -0.789304
vn 0.000000 0.408930 -0.912566
vn 0.000000 0.304594 -0.952482
vn 0.000000 0.304685 -0.952453
vn 0.000000 0.253602 -0.967309
vt -2.000000 -2.000000
vt -1.500000 -1.500000
vt -2.000000 -1.500000
vt -1.500000 -2.000000
vt -1.000000 -1.500000
vt -0.500000 -2.000000
vt -1.000000 -2.000000
vt 0.000000 -1.500000
vt -0.500000 -1.500000
vt 0.500000 -2.000000
vt 0.000000 -2.000000
vt 1.000000 -1.500000
vt 0.500000 -1.500000
vt 1.500000 -2.000000
vt 1.000000 -2.000000
vt 2.000000 -2.000000
vt 1.500000 -1.500000
vt 2.500000 -1.500000
vt 2.000000 -1.500000
vt 3.000000 -2.000000
vt 2.500000 -2.000000
vt -2.000000 -1.000000
vt -1.500000 -1.000000
vt -1.000000 -1.000000
vt -0.500000 -1.000000
vt 0.500000 -1.000000
vt 0.000000 -1.000000
vt 1.000000 -1.000000
vt 1.500000 -1.000000
vt 2.000000 -1.000000
vt 3.000000 -1.500000
vt 2.500000 -1.000000
vt -2.000000 -0.500000
vt -1.500000 -0.500000
vt -1.000000 -0.500000
vt -0.500000 -0.500000
vt 0.000000 -0.500000
vt 0.500000 -0.500000
vt 1.500000 -0.500000
vt 1.000000 -0.500000
vt 2.500000 -0.500000
vt 2.000000 -0.500000
vt 3.000000 -0.500000
vt -2.000000 0.000000
vt -1.000000 0.000000
vt -1.500000 0.000000
vt -0.500000 0.000000
vt 0.000000 0.000000
vt 1.000000 0.000000
vt 0.500000 0.000000
vt 1.500000 0.000000
vt 2.000000 0.000000
vt 2.500000 0.000000
vt -2.000000 0.500000
vt -1.500000 0.500000
vt -1.000000 0.500000
vt 0.000000 0.500000
vt -0.500000 0.500000
vt 1.000000 0.500000
vt 0.500000 0.500000
vt 1.500000 0.500000
vt 2.000000 0.500000
vt 3.000000 0.000000
vt 2.500000 0.500000
vt -2.000000 1.000000
vt -1.500000 1.000000
vt -1.000000 1.000000
vt -0.500000 1.000000
vt 0.000000 1.000000
vt 0.500000 1.000000
vt 1.000000 1.000000
vt 1.500000 1.000000
vt 2.000000 1.000000
vt 3.000000 0.500000
vt 2.500000 1.000000
vt -2.000000 1.500000
vt -1.500000 1.500000
vt -1.000000 1.500000
vt -0.500000 1.500000
vt 0.000000 1.500000
vt 0.500000 1.500000
vt 1.000000 1.500000
vt 2.000000 1.500000
vt 1.500000 1.500000
vt 3.000000 1.000000
vt 2.500000 1.500000
vt -2.000000 2.000000
vt -1.500000 2.000000
vt -1.000000 2.000000
vt -0.500000 2.000000
vt 0.000000 2.000000
vt 0.500000 2.000000
vt 1.000000 2.000000
vt 1.500000 2.000000
vt 2.000000 2.000000
vt 3.000000 1.500000
vt 2.500000 2.000000
vt -2.000000 2.500000
vt -1.500000 2.500000
vt -1.000000 2.500000
vt -0.500000 2.500000
vt 0.000000 2.500000
vt 0.500000 2.500000
vt 1.000000 2.500000
vt 1.500000 2.500000
vt 2.000000 2.500000
vt 3.000000 2.000000
vt 2.500000 2.500000
vt -2.000000 3.000000
vt -1.500000 3.000000
vt -1.000000 3.000000
vt 0.000000 3.000000
vt -0.500000 3.000000
vt 0.500000 3.000000
vt 1.000000 3.000000
vt 1.500000 3.000000
vt 2.000000 3.000000
vt 3.000000 2.500000
vt 2.500000 3.000000
vt 3.000000 -1.000000
vt 3.000000 3.000000
f 1/1/1 2/2/1 3/3/1
f 4/4/1 5/5/1 2/2/1
f 6/6/1 5/5/1 7/7/1
f 6/6/1 8/8/1 9/9/1
f 10/10/1 8/8/1 11/11/1
f 10/10/1 12/12/1 13/13/1
f 14/14/1 12/12/1 15/15/1
f 16/16/1 17/17/1 14/14/1
f 16/16/1 18/18/1 19/19/1
f 20/20/1 18/18/1 21/21/1
f 2/2/1 22/22/1 3/3/1
f 5/5/1 23/23/1 2/2/1
f 9/9/1 24/24/1 5/5/1
f 8/8/1 25/25/1 9/9/1
f 8/8/1 26/26/1 27/27/1
f 13/13/1 28/28/1 26/26/1
f 17/17/1 28/28/1 12/12/1
f 19/19/1 29/29/1 17/17/1
f 18/18/1 30/30/1 19/19/1
f 31/31/1 32/32/1 18/18/1
f 23/23/1 33/33/1 22/22/1
f 24/24/1 34/34/1 23/23/1
f 25/25/1 35/35/1 24/24/1
f 27/27/1 36/36/1 25/25/1
f 26/26/1 37/37/1 27/27/1
f 28/28/1 38/38/1 26/26/1
f 28/28/1 39/39/1 40/40/1
f 30/30/1 39/39/1 29/29/1
f 30/30/1 41/41/1 42/42/1
f 32/32/1 43/43/1 41/41/1
f 34/34/1 44/44/1 33/33/1
f 34/34/1 45/45/1 46/46/1
f 36/36/1 45/45/1 35/35/1
f 37/37/1 47/47/1 36/36/1
f 38/38/1 48/48/1 37/37/1
f 38/38/1 49/49/1 50/50/1
f 39/39/1 49/49/1 40/40/1
f 42/42/1 51/51/1 39/39/1
f 41/41/1 52/52/1 42/42/1
f 43/43/1 53/53/1 41/41/1
f 46/46/1 54/54/2 44/44/1
f 45/45/1 55/55/2 46/46/1
f 47/47/1 56/56/2 45/45/1
f 47/47/1 57/57/2 58/58/2
f 50/50/1 57/57/2 48/48/1
f 50/50/1 59/59/2 60/60/2
f 51/51/1 59/59/2 49/49/1
f 52/52/1 61/61/2 51/51/1
f 53/53/1 62/62/2 52/52/1
f 63/63/1 64/64/2 53/53/1
f 55/55/2 65/65/3 54/54/2
f 56/56/2 66/66/3 55/55/2
f 58/58/2 67/67/3 56/56/2
f 57/57/2 68/68/3 58/58/2
f 60/60/2 69/69/3 57/57/2
f 59/59/2 70/70/3 60/60/2
f 61/61/2 71/71/3 59/59/2
f 62/62/2 72/72/3 61/61/2
f 64/64/2 73/73/3 62/62/2
f 74/74/2 75/75/3 64/64/2
f 66/66/3 76/76/4 65/65/3
f 67/67/3 77/77/4 66/66/3
f 68/68/3 78/78/4 67/67/3
f 69/69/3 79/79/4 68/68/3
f 70/70/3 80/80/4 69/69/3
f 71/71/3 81/81/4 70/70/3
f 72/72/3 82/82/4 71/71/3
f 72/72/3 83/83/4 84/84/4
f 75/75/3 83/83/4 73/73/3
f 85/85/3 86/86/4 75/75/3
f 77/77/4 87/87/5 76/76/4
f 78/78/4 88/88/5 77/77/4
f 79/79/4 89/89/5 78/78/4
f 80/80/4 90/90/5 79/79/4
f 81/81/4 91/91/5 80/80/4
f 82/82/4 92/92/5 81/81/4
f 84/84/4 93/93/5 82/82/4
f 83/83/4 94/94/5 84/84/4
f 86/86/4 95/95/5 83/83/4
f 96/96/4 97/97/5 86/86/4
f 88/88/5 98/98/6 87/87/5
f 89/89/5 99/99/6 88/88/5
f 90/90/5 100/100/6 89/89/5
f 91/91/5 101/101/6 90/90/5
f 92/92/5 102/102/7 91/91/5
f 93/93/5 103/103/7 92/92/5
f 94/94/5 104/104/7 93/93/5
f 95/95/5 105/105/7 94/94/5
f 97/97/5 106/106/6 95/95/5
f 107/107/5 108/108/6 97/97/5
f 99/99/6 109/109/8 98/98/6
f 100/100/6 110/110/8 99/99/6
f 101/101/6 111/111/8 100/100/6
f 101/101/6 112/112/8 113/113/8
f 103/103/7 112/112/8 102/102/7
f 104/104/7 114/114/8 103/103/7
f 105/105/7 115/115/8 104/104/7
f 106/106/6 116/116/8 105/105/7
f 108/108/6 117/117/8 106/106/6
f 118/118/6 119/119/8 108/108/6
f 1/1/1 4/4/1 2/2/1
f 4/4/1 7/7/1 5/5/1
f 6/6/1 9/9/1 5/5/1
f 6/6/1 11/11/1 8/8/1
f 10/10/1 13/13/1 8/8/1
f 10/10/1 15/15/1 12/12/1
f 14/14/1 17/17/1 12/12/1
f 16/16/1 19/19/1 17/17/1
f 16/16/1 21/21/1 18/18/1
f 20/20/1 31/31/1 18/18/1
f 2/2/1 23/23/1 22/22/1
f 5/5/1 24/24/1 23/23/1
f 9/9/1 25/25/1 24/24/1
f 8/8/1 27/27/1 25/25/1
f 8/8/1 13/13/1 26/26/1
f 13/13/1 12/12/1 28/28/1
f 17/17/1 29/29/1 28/28/1
f 19/19/1 30/30/1 29/29/1
f 18/18/1 32/32/1 30/30/1
f 31/31/1 120/120/1 32/32/1
f 23/23/1 34/34/1 33/33/1
f 24/24/1 35/35/1 34/34/1
f 25/25/1 36/36/1 35/35/1
f 27/27/1 37/37/1 36/36/1
f 26/26/1 38/38/1 37/37/1
f 28/28/1 40/40/1 38/38/1
f 28/28/1 29/29/1 39/39/1
f 30/30/1 42/42/1 39/39/1
f 30/30/1 32/32/1 41/41/1
f 32/32/1 120/120/1 43/43/1
f 34/34/1 46/46/1 44/44/1
f 34/34/1 35/35/1 45/45/1
f 36/36/1 47/47/1 45/45/1
f 37/37/1 48/48/1 47/47/1
f 38/38/1 50/50/1 48/48/1
f 38/38/1 40/40/1 49/49/1
f 39/39/1 51/51/1 49/49/1
f 42/42/1 52/52/1 51/51/1
f 41/41/1 53/53/1 52/52/1
f 43/43/1 63/63/1 53/53/1
f 46/46/1 55/55/2 54/54/2
f 45/45/1 56/56/2 55/55/2
f 47/47/1 58/58/2 56/56/2
f 47/47/1 48/48/1 57/57/2
f 50/50/1 60/60/2 57/57/2
f 50/50/1 49/49/1 59/59/2
f 51/51/1 61/61/2 59/59/2
f 52/52/1 62/62/2 61/61/2
f 53/53/1 64/64/2 62/62/2
f 63/63/1 74/74/2 64/64/2
f 55/55/2 66/66/3 65/65/3
f 56/56/2 67/67/3 66/66/3
f 58/58/2 68/68/3 67/67/3
f 57/57/2 69/69/3 68/68/3
f 60/60/2 70/70/3 69/69/3
f 59/59/2 71/71/3 70/70/3
f 61/61/2 72/72/3 71/71/3
f 62/62/2 73/73/3 72/72/3
f 64/64/2 75/75/3 73/73/3
f 74/74/2 85/85/3 75/75/3
f 66/66/3 77/77/4 76/76/4
f 67/67/3 78/78/4 77/77/4
f 68/68/3 79/79/4 78/78/4
f 69/69/3 80/80/4 79/79/4
f 70/70/3 81/81/4 80/80/4
f 71/71/3 82/82/4 81/81/4
f 72/72/3 84/84/4 82/82/4
f 72/72/3 73/73/3 83/83/4
f 75/75/3 86/86/4 83/83/4
f 85/85/3 96/96/4 86/86/4
f 77/77/4 88/88/5 87/87/5
f 78/78/4 89/89/5 88/88/5
f 79/79/4 90/90/5 89/89/5
f 80/80/4 91/91/5 90/90/5
f 81/81/4 92/92/5 91/91/5
f 82/82/4 93/93/5 92/92/5
f 84/84/4 94/94/5 93/93/5
f 83/83/4 95/95/5 94/94/5
f 86/86/4 97/97/5 95/95/5
f 96/96/4 107/107/5 97/97/5
f 88/88/5 99/99/6 98/98/6
f 89/89/5 100/100/6 99/99/6
f 90/90/5 101/101/6 100/100/6
f 91/91/5 102/102/7 101/101/6
f 92/92/5 103/103/7 102/102/7
f 93/93/5 104/104/7 103/103/7
f 94/94/5 105/105/7 104/104/7
f 95/95/5 106/106/6 105/105/7
f 97/97/5 108/108/6 106/106/6
f 107/107/5 118/118/6 108/108/6
f 99/99/6 110/110/8 109/109/8
f 100/100/6 111/111/8 110/110/8
f 101/101/6 113/113/8 111/111/8
f 101/101/6 102/102/7 112/112/8
f 103/103/7 114/114/8 112/112/8
f 104/104/7 115/115/8 114/114/8
f 105/105/7 116/116/8 115/115/8
f 106/106/6 117/117/8 116/116/8
f 108/108/6 119/119/8 117/117/8
f 118/118/6 121/121/8 119/119/8

